# xmcd
#
# Track frame offsets: 
#        150
#        14516
#        24503
#        40465
#        58597
#        71795
#        84602
#        101743
#        118390
#        135651
#        148433
#        166352
#        179521
#        189903
#        200072
#        221431
#        233958
#        243070
#        254713
#        266618
#
# Disc length: 3743 seconds
#
# Revision: 2
# Processed by: cddbd v1.5.2PL0 Copyright (c) Steve Scherf et al.
# Submitted via: ExactAudioCopyFreeDBPlugin 1.0
#
DISCID=3a0e9d14
DTITLE=Various Artist - Solid Soul 7 - Please Tell Me Why
DYEAR=2001
DGENRE=Soul
TTITLE0=Jackie Wilson - The Greatest Hurt
TTITLE1=Chuck Jackson - If I Didn't Love You
TTITLE2=Bobby Womack - Woman's Gotta Have It
TTITLE3=Joe Tex - Hungry For Your Love
TTITLE4=Tyrone Davis - Turn Back The Hands Of Time
TTITLE5=The Platters - Washed Ashore
TTITLE6=Aaron Neville - Make Me Strong
TTITLE7=Patti Jo - Make Me Believe In You
TTITLE8=Bobby Womack - I'm Through Try To Prove My Love To You
TTITLE9=Betty Harris - His Kiss
TTITLE10=Sandpebbles - Let It Be Me
TTITLE11=The Platters - I'll Be Home
TTITLE12=Chuck Jackson - This Broken Heart (That You Gave Me)
TTITLE13=Dee Erwin With Leo Price And His Band - Teardrops
TTITLE14=Joe Tex - Time Brings About A Change
TTITLE15=The Impressions - It's Alright
TTITLE16=Jack Wilson - Please Tell Me Why
TTITLE17=The Turbans - Six Questions
TTITLE18=Shep and The Limelites - Our Anniversary
TTITLE19=Little Caesar and The Romans - Three Weeks Ago
EXTD=
EXTT0=
EXTT1=
EXTT2=
EXTT3=
EXTT4=
EXTT5=
EXTT6=
EXTT7=
EXTT8=
EXTT9=
EXTT10=
EXTT11=
EXTT12=
EXTT13=
EXTT14=
EXTT15=
EXTT16=
EXTT17=
EXTT18=
EXTT19=
PLAYORDER=
